HIERARCHY
ROOT hip
{
	OFFSET 0.000000 0.000000 0.000000 
	CHANNELS 6 Xposition Yposition Zposition Xrotation Zrotation Yrotation
	JOINT abdomen
	{
		OFFSET 0.000000 3.402643 0.000000 
		CHANNELS 3 Xrotation Zrotation Yrotation
		JOINT chest
		{
			OFFSET 0.000000 8.438565 -0.680529 
			CHANNELS 3 Xrotation Zrotation Yrotation
			JOINT neck
			{
				OFFSET 0.000000 10.207942 -0.272212 
				CHANNELS 3 Xrotation Zrotation Yrotation
				JOINT head
				{
					OFFSET 0.000000 3.130431 0.000000 
					CHANNELS 3 Xrotation Zrotation Yrotation
					End Site
					{
						OFFSET 0.000000 3.130435 0.000000 
					}
				}
			}
			JOINT lCollar
			{
				OFFSET 3.470700 6.669187 -0.816635 
				CHANNELS 3 Yrotation Zrotation Xrotation
				JOINT lShldr
				{
					OFFSET 3.198488 0.000000 0.000000 
					CHANNELS 3 Zrotation Yrotation Xrotation
					JOINT lForeArm
					{
						OFFSET 10.139888 0.000000 0.000000 
						CHANNELS 3 Yrotation Zrotation Xrotation
						JOINT lHand
						{
							OFFSET 8.370511 0.000000 0.000000 
							CHANNELS 3 Zrotation Yrotation Xrotation
							End Site
							{
								OFFSET 4.083176 0.000000 0.000000 
							}
						}
					}
				}
			}
			JOINT rCollar
			{
				OFFSET -3.470700 6.669187 -0.816635 
				CHANNELS 3 Yrotation Zrotation Xrotation
				JOINT rShldr
				{
					OFFSET -3.198488 0.000000 0.000000 
					CHANNELS 3 Zrotation Yrotation Xrotation
					JOINT rForeArm
					{
						OFFSET -10.139888 0.000000 0.000000 
						CHANNELS 3 Yrotation Zrotation Xrotation
						JOINT rHand
						{
							OFFSET -8.370511 0.000000 0.000000 
							CHANNELS 3 Zrotation Yrotation Xrotation
							End Site
							{
								OFFSET -4.083176 0.000000 0.000000 
							}
						}
					}
				}
			}
		}
	}
	JOINT lThigh
	{
		OFFSET 5.308129 -1.633274 1.361059 
		CHANNELS 3 Xrotation Zrotation Yrotation
		JOINT lShin
		{
			OFFSET -2.041588 -20.007561 0.000000 
			CHANNELS 3 Xrotation Zrotation Yrotation
			JOINT lFoot
			{
				OFFSET 0.000000 -19.190928 -1.224953 
				CHANNELS 3 Xrotation Yrotation Zrotation
				End Site
				{
					OFFSET 0.000000 -2.449906 4.627600 
				}
			}
		}
	}
	JOINT rThigh
	{
		OFFSET -5.308129 -1.633274 1.361059 
		CHANNELS 3 Xrotation Zrotation Yrotation
		JOINT rShin
		{
			OFFSET 2.041588 -20.007561 0.000000 
			CHANNELS 3 Xrotation Zrotation Yrotation
			JOINT rFoot
			{
				OFFSET 0.000000 -19.190928 -1.224953 
				CHANNELS 3 Xrotation Yrotation Zrotation
				End Site
				{
					OFFSET 0.000000 -2.449906 4.627600 
				}
			}
		}
	}
}
MOTION
Frames: 9
Frame Time: 0.016667
-1.631252 46.324398 2.474888 9.025050 -1.080210 41.224800 -19.522699 -2.972810 -2.924400 11.917800 2.124090 -1.914210 34.834900 -6.178060 -3.501140 20.753099 0.218375 -0.016043 2.000000 -2.000000 0.000000 -94.407600 -39.097401 -137.625000 71.475098 -0.258287 0.129683 -179.919998 -179.899002 4.054880 -2.000000 2.000000 0.000000 -129.003998 -178.261002 4.448990 -85.801300 0.224859 0.136358 -0.078277 0.065793 -161.130997 -9.496304 7.047723 4.437658 74.069145 0.785582 4.157472 -9.114269 -11.778572 -2.490851 -36.340038 1.124729 2.800174 62.856728 -0.626206 -4.232358 -35.630287 6.383952 2.325582 
-1.806848 46.728252 4.948183 8.429470 -1.159220 45.423801 -19.191999 -2.953110 -3.262580 12.103100 2.192740 -2.073610 34.852402 -4.732730 -3.853570 20.774700 0.676500 -0.297860 2.000000 -2.000000 0.000000 -95.316902 -36.408401 -135.653000 71.055199 -0.259236 0.129361 -179.919998 -179.899002 4.181830 -2.000000 2.000000 0.000000 -127.655998 -175.487000 4.657230 -86.914597 0.222208 0.136526 -0.076930 0.062711 -159.929993 -12.201467 6.365659 4.125543 73.655434 0.639416 4.207729 -14.584564 -10.234388 -3.832536 -34.469147 0.787858 1.586725 61.325222 -0.757603 -4.153354 -36.777145 5.109486 1.305969 
-1.984163 47.050789 7.442103 7.903010 -1.470280 49.541801 -18.958700 -2.846810 -3.564220 12.356400 2.339150 -2.221470 35.203400 -4.058690 -4.560700 20.960300 0.684779 -0.673684 2.000000 -2.000000 0.000000 -95.915100 -33.934700 -133.884995 70.449699 -0.260600 0.128885 -179.919998 -179.899002 4.142770 -2.000000 2.000000 0.000000 -126.200996 -172.733002 4.717810 -87.803299 0.220090 0.136624 -0.075577 0.059424 -158.660004 -14.585277 5.632628 3.990463 72.346832 0.613891 4.217463 -19.580107 -8.088232 -4.569268 -33.038273 0.703312 0.369532 59.852837 -0.874202 -4.077035 -37.933735 3.944520 0.277398 
-2.142009 47.337601 9.984441 7.259700 -1.859980 54.020699 -18.779100 -2.760710 -4.031610 12.619200 2.524440 -2.441360 35.483601 -3.059970 -5.089030 21.098301 0.889349 -0.980022 2.000000 -2.000000 0.000000 -96.182602 -31.686199 -132.384995 69.512299 -0.262701 0.128119 -179.919006 -179.899002 3.947460 -2.000000 2.000000 0.000000 -124.598000 -169.813004 4.642080 -88.565002 0.218273 0.136682 -0.074364 0.056286 -157.459000 -16.570251 4.869341 3.527908 69.998596 0.673601 4.200183 -24.427036 -5.235808 -4.627302 -31.673466 0.709296 -1.040923 58.479706 -0.988134 -4.038929 -39.282463 2.838281 -0.760228 
-2.262323 47.600834 12.572937 6.548090 -2.260560 58.705200 -18.663500 -2.705450 -4.608930 12.862300 2.738830 -2.722980 35.851898 -2.058330 -5.549630 21.285400 1.083890 -1.248290 2.000000 -2.000000 0.000000 -96.187698 -29.691999 -131.162003 68.330597 -0.265332 0.127106 -179.919006 -179.897995 3.830270 -2.000000 2.000000 0.000000 -122.837997 -166.746994 4.458620 -89.199699 0.216759 0.136712 -0.073481 0.053872 -156.541000 -18.113382 4.092874 2.962693 67.089569 0.805096 4.141535 -29.198574 -1.434741 -3.613788 -30.340893 0.744552 -2.442694 57.047695 -1.068965 -3.971938 -40.616104 1.742713 -1.955604 
-2.341959 47.837120 15.184578 5.826260 -2.584260 63.554600 -18.591000 -2.693940 -5.304590 13.075700 2.991940 -3.078220 36.248600 -1.092900 -5.940160 21.472799 1.296660 -1.489920 2.000000 -2.000000 0.000000 -96.018097 -27.942600 -130.246994 67.031799 -0.268199 0.125929 -179.919006 -179.899002 3.937690 -2.000000 2.000000 0.000000 -120.981003 -163.593994 4.148100 -89.736801 0.215477 0.136724 -0.073001 0.052505 -156.022995 -19.105619 3.282431 2.303077 64.375099 0.949584 4.068917 -33.656406 2.909873 -1.463710 -29.177704 0.726109 -3.839453 55.977703 -1.149332 -3.917404 -42.043003 0.626989 -3.254013 
-2.385502 48.027641 17.805990 5.123850 -2.918000 68.361397 -18.581499 -2.727640 -6.066210 13.308300 3.293840 -3.465440 36.614498 -0.239914 -6.322720 21.630899 1.481360 -1.720020 2.000000 -2.000000 0.000000 -95.673798 -26.359699 -129.746002 65.772003 -0.270954 0.124726 -179.919998 -179.899994 4.328310 -2.000000 2.000000 0.000000 -119.123001 -160.488998 3.749920 -90.156700 0.214502 0.117193 -0.072761 0.051806 -155.759995 -19.601929 2.556576 1.391972 62.139866 1.078788 3.994402 -37.142681 6.305551 0.898619 -28.281563 0.724354 -4.934748 55.241001 -1.219880 -3.882677 -43.325287 -0.384054 -4.580214 
-2.401544 48.168797 20.431334 4.392110 -3.310580 72.909798 -18.626301 -2.767740 -6.845970 13.540700 3.615380 -3.872100 36.903099 0.509289 -6.645730 21.730301 1.638480 -1.920890 2.000000 -2.000000 0.000000 -95.223396 -24.924200 -129.718994 64.619698 -0.273450 0.123573 -179.921005 -179.901001 4.972840 -2.000000 2.000000 0.000000 -117.322998 -157.541000 3.358290 -90.449699 0.213853 0.117190 -0.072576 0.051263 -155.554993 -19.720715 2.064153 -0.083364 60.461533 1.208361 3.919559 -39.446030 7.505616 1.821256 -27.681341 0.893025 -5.264558 54.817802 -1.254732 -3.837249 -44.258694 -1.114942 -5.603116 
-2.393242 48.271408 23.052521 3.601560 -3.771850 77.145401 -18.745501 -2.829480 -7.629630 13.753700 3.898230 -4.263090 37.172100 1.222990 -6.875250 21.820601 1.832740 -2.070530 2.000000 -2.000000 0.000000 -94.695900 -23.616199 -130.149994 63.604000 -0.275630 0.122515 -179.923004 -179.903000 5.793170 -2.000000 2.000000 0.000000 -115.571999 -154.817001 2.999930 -90.605904 0.213506 0.117187 -0.072393 0.050718 -155.348999 -19.620119 1.870980 -2.284078 58.899796 1.343368 3.837584 -40.203205 6.362020 0.572094 -27.286777 1.285677 -4.472075 54.747356 -1.295088 -3.820910 -44.696392 -1.293015 -5.935057 
